{
  "accessors": [
    {
      "bufferView": 1,
      "byteOffset": 0,
      "componentType": 5126,
      "normalized": false,
      "count": 175107,
      "type": "VEC3",
      "max": [
        0.6588566303253174,
        0.25491923093795776,
        0.7612364292144775
      ],
      "min": [
        -0.6381296515464783,
        -0.025089502334594727,
        -0.9367862343788147
      ]
    },
    {
      "bufferView": 2,
      "byteOffset": 0,
      "componentType": 5126,
      "normalized": false,
      "count": 175107,
      "type": "VEC2",
      "max": [
        0.997802734375,
        0.7307118773460388
      ],
      "min": [
        0.002084016799926758,
        0.0020807385444641113
      ]
    },
    {
      "bufferView": 3,
      "byteOffset": 0,
      "componentType": 5125,
      "normalized": false,
      "count": 982782,
      "type": "SCALAR",
      "max": [
        175106
      ],
      "min": [
        0
      ]
    }
  ],
  "asset": {
    "generator": "Scaniverse (https://scaniverse.com)",
    "version": "2.0"
  },
  "bufferViews": [
    {
      "buffer": 0,
      "byteOffset": 0,
      "byteLength": 7201886
    },
    {
      "buffer": 0,
      "byteOffset": 7201888,
      "byteLength": 2101284,
      "target": 34962
    },
    {
      "buffer": 0,
      "byteOffset": 9303172,
      "byteLength": 1400856,
      "target": 34962
    },
    {
      "buffer": 0,
      "byteOffset": 10704028,
      "byteLength": 3931128,
      "target": 34963
    }
  ],
  "buffers": [
    {
      "uri": "model.bin",
      "byteLength": 14635156
    }
  ],
  "images": [
    {
      "mimeType": "image/jpeg",
      "bufferView": 0,
      "name": "texture.jpg"
    }
  ],
  "materials": [
    {
      "pbrMetallicRoughness": {
        "baseColorFactor": [
          1.0,
          1.0,
          1.0,
          1.0
        ],
        "metallicFactor": 0.0,
        "roughnessFactor": 1.0,
        "baseColorTexture": {
          "index": 0,
          "texCoord": 0
        }
      },
      "emissiveFactor": [
        0.0,
        0.0,
        0.0
      ],
      "alphaMode": "OPAQUE",
      "alphaCutoff": 0.5,
      "doubleSided": false,
      "name": "main"
    }
  ],
  "meshes": [
    {
      "primitives": [
        {
          "attributes": {
            "POSITION": 0,
            "TEXCOORD_0": 1
          },
          "indices": 2,
          "mode": 4,
          "material": 0
        }
      ],
      "name": "mesh"
    }
  ],
  "nodes": [
    {
      "children": [
        1
      ],
      "name": "root"
    },
    {
      "mesh": 0,
      "name": "mesh"
    }
  ],
  "samplers": [
    {
      "wrapS": 10497,
      "wrapT": 10497
    }
  ],
  "scene": 0,
  "scenes": [
    {
      "nodes": [
        0
      ]
    }
  ],
  "textures": [
    {
      "sampler": 0,
      "source": 0
    }
  ]
}